<?xml version="1.0" standalone="no"?>
<!DOCTYPE svg PUBLIC "-//W3C//DTD SVG 20010904//EN"
 "http://www.w3.org/TR/2001/REC-SVG-20010904/DTD/svg10.dtd">
<svg version="1.0" xmlns="http://www.w3.org/2000/svg"
 width="36" height="36" viewBox="0 0 36 36"
 preserveAspectRatio="xMidYMid meet">

<g transform="translate(0.000000,36) scale(0.100000,-0.100000)"
fill="#000000" stroke="none">
<path d="M1325 2829 c-93 -10 -149 -26 -233 -68 -24 -11 -50 -21 -58 -21 -8 0
-14 -4 -14 -10 0 -5 -9 -10 -20 -10 -11 0 -20 -3 -20 -8 0 -4 -17 -15 -37 -24
-34 -15 -69 -44 -98 -80 -47 -59 -85 -112 -85 -120 0 -5 -9 -19 -20 -31 -11
-12 -18 -27 -15 -34 2 -8 -3 -33 -13 -56 -25 -63 -22 -261 6 -391 26 -118 27
-126 7 -126 -8 0 -15 -4 -15 -8 0 -11 47 -52 52 -46 3 2 5 -2 6 -8 1 -7 5 -28
8 -46 5 -24 2 -38 -11 -52 -10 -11 -21 -40 -25 -65 -6 -39 -4 -49 16 -70 27
-29 49 -33 39 -7 -4 10 -3 13 3 7 5 -5 17 -41 27 -78 16 -59 16 -70 4 -78 -11
-7 -9 -9 8 -9 19 0 25 -11 44 -72 25 -87 51 -138 118 -238 28 -41 51 -83 51
-92 0 -9 5 -20 10 -23 6 -3 10 -17 10 -30 0 -13 6 -28 13 -32 25 -16 67 -75
67 -94 0 -20 84 -109 102 -109 6 0 7 -7 4 -16 -3 -9 4 -32 16 -53 13 -20 23
-40 23 -45 0 -14 35 -16 35 -3 1 12 29 -17 64 -67 12 -16 25 -25 34 -21 13 5
13 3 1 -12 -9 -11 -10 -14 -1 -9 13 8 45 -17 35 -28 -3 -3 3 -9 13 -12 10 -4
26 -13 34 -20 21 -18 85 -21 104 -5 12 10 16 11 16 1 0 -10 3 -10 14 -1 8 7
26 14 40 17 20 3 30 -3 49 -31 13 -19 27 -32 30 -28 4 3 7 2 7 -4 0 -13 -145
-33 -246 -33 -323 0 -559 114 -559 270 0 45 4 53 45 96 l45 46 -40 -21 c-22
-12 -51 -28 -65 -36 -14 -7 -50 -26 -80 -40 -30 -15 -125 -62 -210 -104 -85
-43 -269 -133 -407 -201 l-253 -124 0 -108 0 -108 1540 0 1540 0 0 179 0 178
-77 35 c-94 42 -198 84 -443 178 -210 80 -359 151 -408 194 -22 19 -47 30 -78
34 -27 3 -48 11 -54 21 -4 9 -12 64 -15 123 l-8 106 40 84 c45 92 63 158 64
233 1 81 7 99 41 115 18 8 40 27 51 41 17 23 17 31 6 68 -10 34 -10 44 0 50 9
6 11 33 6 107 -11 193 -14 204 -40 204 -24 0 -38 21 -29 44 3 8 1 94 -5 190
-9 145 -15 186 -37 247 -14 40 -33 79 -40 87 -8 7 -12 17 -9 21 2 5 -9 21 -25
37 -16 16 -30 35 -30 42 0 6 -3 12 -7 12 -5 0 -26 16 -47 35 -22 19 -44 35
-50 35 -6 0 -17 9 -24 21 -7 11 -18 19 -25 16 -6 -2 -18 2 -25 9 -7 7 -29 16
-50 20 -20 4 -45 13 -54 21 -9 8 -23 13 -30 11 -7 -3 -26 1 -43 8 -52 21 -215
34 -310 23z m-290 -403 c9 -9 31 -13 60 -11 25 2 59 0 75 -5 18 -5 28 -5 25 0
-3 5 7 7 22 6 16 -2 44 -4 63 -5 27 -1 31 -4 20 -11 -11 -7 -7 -10 17 -10 17
0 35 5 38 10 4 6 28 10 53 9 26 -1 60 2 76 6 24 6 28 5 24 -7 -4 -8 0 -15 7
-15 8 0 11 7 7 15 -3 10 -1 13 6 8 6 -3 13 -2 17 3 3 5 14 8 25 6 25 -5 62
-30 54 -37 -3 -3 1 -6 8 -5 54 2 60 -2 53 -35 -9 -43 -20 -54 -38 -39 -11 9
-17 8 -27 -3 -10 -13 -7 -16 14 -22 23 -5 66 -54 49 -54 -5 -1 4 -8 20 -16 15
-8 27 -19 27 -25 0 -6 3 -8 8 -6 12 8 27 -16 26 -41 -2 -29 -4 -31 -45 -34
-18 -2 -36 -6 -39 -9 -7 -10 -138 -69 -153 -69 -6 0 -23 -9 -37 -20 -31 -24
-37 -24 -81 -1 -28 15 -60 19 -155 21 -151 4 -151 4 -201 -8 -23 -5 -40 -5
-37 -1 8 13 2 12 -60 -16 -40 -18 -57 -31 -62 -49 -9 -37 -1 -61 21 -60 17 0
20 -5 17 -36 -5 -52 11 -103 36 -116 12 -6 30 -18 40 -27 10 -10 26 -17 35
-17 10 0 25 -4 35 -9 9 -6 29 -12 44 -16 16 -3 27 -9 27 -13 -8 -48 58 -41
117 13 26 23 56 40 71 40 9 0 25 18 36 39 18 34 23 61 26 133 1 16 32 21 61 9
31 -13 41 -27 35 -45 -3 -7 0 -20 6 -27 8 -10 9 -25 1 -54 -6 -25 -6 -42 -1
-46 6 -3 7 -14 4 -25 -4 -12 3 -37 16 -62 25 -47 26 -97 3 -132 -17 -26 -86
-57 -108 -49 -13 5 -76 -20 -76 -30 0 -3 -3 -12 -6 -20 -4 -12 4 -20 30 -31
37 -16 49 -45 19 -45 -14 0 -15 -2 -5 -9 10 -6 8 -10 -8 -14 -12 -3 -19 -10
-15 -16 3 -6 0 -9 -8 -5 -8 3 -18 1 -22 -5 -3 -6 -17 -8 -31 -5 -13 3 -31 1
-39 -6 -8 -6 -18 -9 -24 -6 -5 3 -19 -3 -32 -13 -18 -15 -24 -29 -24 -65 0
-28 5 -48 13 -51 17 -6 15 -24 -3 -31 -17 -7 -54 26 -74 64 -6 12 -19 22 -27
22 -11 0 -13 6 -9 19 5 16 2 18 -15 14 -15 -4 -20 -1 -20 14 0 23 -28 65 -40
58 -4 -3 -10 4 -13 15 -3 13 -11 18 -21 14 -10 -4 -19 2 -27 20 -7 14 -18 26
-26 28 -9 2 -33 49 -56 108 -34 88 -40 117 -41 180 -1 142 38 331 77 380 19
23 20 65 2 99 -8 17 -13 31 -10 31 3 0 1 8 -4 18 -15 27 -23 135 -11 152 5 8
10 11 10 7 0 -11 22 11 44 45 10 15 23 25 31 22 8 -3 24 1 37 10 27 19 26 19
43 2z m729 -614 c-1 -2 -13 0 -28 4 -19 5 -26 13 -26 31 l0 26 28 -29 c15 -16
27 -30 26 -32z m106 38 c0 -5 -9 -14 -20 -20 -22 -12 -23 -10 -14 14 7 17 34
22 34 6z m-780 -32 c0 -7 12 -25 27 -40 l27 -28 -25 0 c-29 0 -69 26 -69 44 0
14 20 36 32 36 4 0 8 -5 8 -12z m904 -173 c-4 -8 -11 -15 -16 -15 -6 0 -5 6 2
15 7 8 14 15 16 15 2 0 1 -7 -2 -15z m-1207 -62 c-4 -17 -4 -17 -12 0 -4 9 -4
25 0 35 8 16 8 16 12 0 3 -10 3 -26 0 -35z m740 -336 c3 -4 -21 -7 -54 -7 -33
0 -77 -7 -96 -15 -20 -8 -41 -15 -47 -15 -5 0 -10 7 -10 15 0 8 9 15 20 15 11
0 20 3 20 8 0 9 157 8 167 -1z m-32 -86 c-17 -17 -68 -40 -77 -35 -4 3 -8 12
-8 21 0 11 7 14 25 11 14 -3 28 -1 31 3 3 5 13 9 22 9 10 0 12 -3 7 -9z m-155
-32 c25 -6 55 -20 67 -31 20 -19 21 -23 8 -42 -21 -29 -19 -33 16 -34 17 0 36
-6 44 -12 10 -8 14 -8 17 1 2 7 10 9 16 5 9 -6 9 -13 -3 -29 -17 -24 -20 -57
-5 -57 6 0 10 -5 10 -11 0 -5 -4 -7 -10 -4 -5 3 -10 2 -10 -3 0 -9 -31 -23
-55 -26 -5 -1 -13 -5 -16 -9 -4 -5 -20 -2 -37 7 -26 14 -33 14 -44 2 -11 -11
-15 -11 -29 5 -9 10 -29 23 -45 29 l-29 12 28 22 c15 12 27 28 27 36 0 21 -30
49 -46 43 -9 -3 -14 1 -14 12 0 9 4 14 8 11 5 -3 9 8 9 24 0 31 18 60 37 60 6
0 31 -5 56 -11z m585 -728 c-6 -5 -21 -12 -35 -16 -24 -7 -24 -7 -5 9 21 16
56 23 40 7z m-118 -37 c-3 -3 -12 -4 -19 -1 -8 3 -5 6 6 6 11 1 17 -2 13 -5z"/>
<path d="M1460 981 c0 -5 5 -13 10 -16 6 -3 10 -2 10 4 0 5 -4 13 -10 16 -5 3
-10 2 -10 -4z"/>
<path d="M695 1783 c13 -63 17 -73 25 -68 17 10 11 51 -9 69 -19 17 -19 17
-16 -1z"/>
<path d="M1530 378 c0 -4 7 -8 15 -8 8 0 15 4 15 8 0 5 -7 9 -15 9 -8 0 -15
-4 -15 -9z"/>
</g>
</svg>
